<svg width="32" height="32" viewBox="0 0 32 32" fill="none" xmlns="http://www.w3.org/2000/svg">
  <!-- GRIDERA|Comply Favicon — Grid Mesh (Concept B) -->
  <rect width="32" height="32" rx="6" fill="#0B0E14"/>
  <g stroke="#00CCAA" stroke-width="1" stroke-linecap="round" opacity="0.35">
    <line x1="7" y1="7" x2="16" y2="7"/><line x1="16" y1="7" x2="25" y2="7"/>
    <line x1="7" y1="16" x2="16" y2="16"/><line x1="16" y1="16" x2="25" y2="16"/>
    <line x1="7" y1="25" x2="16" y2="25"/><line x1="16" y1="25" x2="25" y2="25"/>
    <line x1="7" y1="7" x2="7" y2="16"/><line x1="7" y1="16" x2="7" y2="25"/>
    <line x1="16" y1="7" x2="16" y2="16"/><line x1="16" y1="16" x2="16" y2="25"/>
    <line x1="25" y1="7" x2="25" y2="16"/><line x1="25" y1="16" x2="25" y2="25"/>
    <line x1="25" y1="25" x2="30" y2="30"/>
  </g>
  <g>
    <circle cx="7" cy="7" r="2" fill="#00CCAA"/><circle cx="16" cy="7" r="2" fill="#00CCAA"/>
    <circle cx="25" cy="7" r="2" fill="#00CCAA"/><circle cx="7" cy="16" r="2" fill="#00CCAA"/>
    <circle cx="16" cy="16" r="2.8" fill="#00CCAA"/><circle cx="25" cy="16" r="2" fill="#00CCAA"/>
    <circle cx="7" cy="25" r="2" fill="#00CCAA"/><circle cx="16" cy="25" r="2" fill="#00CCAA"/>
    <circle cx="25" cy="25" r="2" fill="#00CCAA"/><circle cx="30" cy="30" r="1.3" fill="#00CCAA"/>
  </g>
</svg>
