<svg width="32" height="32" viewBox="0 0 32 32" fill="none" xmlns="http://www.w3.org/2000/svg">
  <!-- Q-GRID Comply Favicon — simplified lattice Q -->
  <rect width="32" height="32" rx="6" fill="#0B0E14"/>
  <g stroke="#00CCAA" stroke-width="1.2" stroke-linecap="round" opacity="0.5">
    <line x1="10" y1="7" x2="22" y2="7"/>
    <line x1="10" y1="7" x2="6" y2="16"/>
    <line x1="22" y1="7" x2="26" y2="16"/>
    <line x1="6" y1="16" x2="10" y2="25"/>
    <line x1="26" y1="16" x2="22" y2="25"/>
    <line x1="10" y1="25" x2="22" y2="25"/>
    <line x1="10" y1="7" x2="16" y2="14"/>
    <line x1="22" y1="7" x2="16" y2="14"/>
    <line x1="6" y1="16" x2="16" y2="14"/>
    <line x1="26" y1="16" x2="16" y2="14"/>
    <line x1="16" y1="14" x2="10" y2="25"/>
    <line x1="16" y1="14" x2="22" y2="25"/>
    <line x1="22" y1="25" x2="28" y2="29"/>
  </g>
  <g>
    <circle cx="10" cy="7" r="2" fill="#00CCAA"/>
    <circle cx="22" cy="7" r="2" fill="#00CCAA"/>
    <circle cx="6" cy="16" r="2" fill="#00CCAA"/>
    <circle cx="16" cy="14" r="2.5" fill="#00CCAA"/>
    <circle cx="26" cy="16" r="2" fill="#00CCAA"/>
    <circle cx="10" cy="25" r="2" fill="#00CCAA"/>
    <circle cx="22" cy="25" r="2" fill="#00CCAA"/>
    <circle cx="28" cy="29" r="1.5" fill="#00CCAA"/>
  </g>
</svg>
